HIERARCHY
ROOT hip
{
  OFFSET 0 0 0
  CHANNELS 6 Xposition Yposition Zposition Zrotation Yrotation Xrotation
  JOINT abdomen
  {
    OFFSET 0 20.6881 -0.73152
    CHANNELS 3 Zrotation Xrotation Yrotation
    JOINT chest
    {
      OFFSET 0 11.7043 -0.48768
      CHANNELS 3 Zrotation Xrotation Yrotation
      JOINT neck
      {
        OFFSET 0 22.1894 -2.19456
        CHANNELS 3 Zrotation Xrotation Yrotation
        JOINT head
        {
          OFFSET -0.24384 7.07133 1.2192
          CHANNELS 3 Zrotation Xrotation Yrotation
          JOINT leftEye
          {
            OFFSET 4.14528 8.04674 8.04672
            CHANNELS 3 Zrotation Xrotation Yrotation
            End Site
            {
              OFFSET 1 0 0
            }
          }
          JOINT rightEye
          {
            OFFSET -3.6576 8.04674 8.04672
            CHANNELS 3 Zrotation Xrotation Yrotation
            End Site
            {
              OFFSET 1 0 0
            }
          }
        }
      }
      JOINT rCollar
      {
        OFFSET -2.68224 19.2634 -4.8768
        CHANNELS 3 Zrotation Xrotation Yrotation
        JOINT rShldr
        {
          OFFSET -8.77824 -1.95073 1.46304
          CHANNELS 3 Zrotation Xrotation Yrotation
          JOINT rForeArm
          {
            OFFSET -28.1742 -1.7115 0.48768
            CHANNELS 3 Zrotation Xrotation Yrotation
            JOINT rHand
            {
              OFFSET -22.5879 0.773209 7.07136
              CHANNELS 3 Zrotation Xrotation Yrotation
              JOINT rThumb1
              {
                OFFSET -1.2192 -0.487915 3.41376
                CHANNELS 3 Zrotation Xrotation Yrotation
                JOINT rThumb2
                {
                  OFFSET -3.37035 -0.52449 3.41376
                  CHANNELS 3 Zrotation Xrotation Yrotation
                  End Site
                  {
                    OFFSET -1.78271 -1.18214 1.43049
                  }
                }
              }
              JOINT rIndex1
              {
                OFFSET -7.75947 0.938293 5.60832
                CHANNELS 3 Zrotation Xrotation Yrotation
                JOINT rIndex2
                {
                  OFFSET -2.54057 -0.884171 1.56538
                  CHANNELS 3 Zrotation Xrotation Yrotation
                  End Site
                  {
                    OFFSET -1.62519 -0.234802 1.16502
                  }
                }
              }
              JOINT rMid1
              {
                OFFSET -8.24714 1.18213 3.41376
                CHANNELS 3 Zrotation Xrotation Yrotation
                JOINT rMid2
                {
                  OFFSET -3.10165 -0.590103 1.0647
                  CHANNELS 3 Zrotation Xrotation Yrotation
                  End Site
                  {
                    OFFSET -2.48547 -0.328903 0.83742
                  }
                }
              }
              JOINT rRing1
              {
                OFFSET -8.82822 0.546677 1.51678
                CHANNELS 3 Zrotation Xrotation Yrotation
                JOINT rRing2
                {
                  OFFSET -2.60934 -0.819778 -0.0198488
                  CHANNELS 3 Zrotation Xrotation Yrotation
                  End Site
                  {
                    OFFSET -2.33842 -0.294052 0.168128
                  }
                }
              }
              JOINT rPinky1
              {
                OFFSET -8.27202 -0.0477905 -0.4584
                CHANNELS 3 Zrotation Xrotation Yrotation
                JOINT rPinky2
                {
                  OFFSET -1.82734 -0.647385 -0.700984
                  CHANNELS 3 Zrotation Xrotation Yrotation
                  End Site
                  {
                    OFFSET -1.69225 -0.51767 -0.607171
                  }
                }
              }
            }
          }
        }
      }
      JOINT lCollar
      {
        OFFSET 2.68224 19.2634 -4.8768
        CHANNELS 3 Zrotation Xrotation Yrotation
        JOINT lShldr
        {
          OFFSET 8.77824 -1.95073 1.46304
          CHANNELS 3 Zrotation Xrotation Yrotation
          JOINT lForeArm
          {
            OFFSET 28.1742 -1.7115 0.48768
            CHANNELS 3 Zrotation Xrotation Yrotation
            JOINT lHand
            {
              OFFSET 22.5879 0.773209 7.07136
              CHANNELS 3 Zrotation Xrotation Yrotation
              JOINT lThumb1
              {
                OFFSET 1.2192 -0.487915 3.41376
                CHANNELS 3 Zrotation Xrotation Yrotation
                JOINT lThumb2
                {
                  OFFSET 3.37035 -0.52449 3.41376
                  CHANNELS 3 Zrotation Xrotation Yrotation
                  End Site
                  {
                    OFFSET 1.78271 -1.18214 1.43049
                  }
                }
              }
              JOINT lIndex1
              {
                OFFSET 7.75947 0.938293 5.60832
                CHANNELS 3 Zrotation Xrotation Yrotation
                JOINT lIndex2
                {
                  OFFSET 2.54057 -0.884171 1.56538
                  CHANNELS 3 Zrotation Xrotation Yrotation
                  End Site
                  {
                    OFFSET 1.62519 -0.234802 1.16502
                  }
                }
              }
              JOINT lMid1
              {
                OFFSET 8.24714 1.18213 3.41376
                CHANNELS 3 Zrotation Xrotation Yrotation
                JOINT lMid2
                {
                  OFFSET 3.10165 -0.590103 1.0647
                  CHANNELS 3 Zrotation Xrotation Yrotation
                  End Site
                  {
                    OFFSET 2.48547 -0.328903 0.83742
                  }
                }
              }
              JOINT lRing1
              {
                OFFSET 8.82822 0.546677 1.51678
                CHANNELS 3 Zrotation Xrotation Yrotation
                JOINT lRing2
                {
                  OFFSET 2.60934 -0.819778 -0.0198488
                  CHANNELS 3 Zrotation Xrotation Yrotation
                  End Site
                  {
                    OFFSET 2.33842 -0.294052 0.168128
                  }
                }
              }
              JOINT lPinky1
              {
                OFFSET 8.27202 -0.0477905 -0.4584
                CHANNELS 3 Zrotation Xrotation Yrotation
                JOINT lPinky2
                {
                  OFFSET 1.82734 -0.647385 -0.700984
                  CHANNELS 3 Zrotation Xrotation Yrotation
                  End Site
                  {
                    OFFSET 1.69225 -0.51767 -0.607171
                  }
                }
              }
            }
          }
        }
      }
    }
  }
  JOINT rButtock
  {
    OFFSET -8.77824 4.35084 1.2192
    CHANNELS 3 Zrotation Xrotation Yrotation
    JOINT rThigh
    {
      OFFSET 0 -1.70687 -2.19456
      CHANNELS 3 Zrotation Xrotation Yrotation
      JOINT rShin
      {
        OFFSET 0 -36.8199 0.73152
        CHANNELS 3 Zrotation Xrotation Yrotation
        JOINT rFoot
        {
          OFFSET 0.73152 -45.1104 -5.12064
          CHANNELS 3 Zrotation Xrotation Yrotation
          End Site
          {
            OFFSET -1.1221 -3.69964 12.103
          }
        }
      }
    }
  }
  JOINT lButtock
  {
    OFFSET 8.77824 4.35084 1.2192
    CHANNELS 3 Zrotation Xrotation Yrotation
    JOINT lThigh
    {
      OFFSET 0 -1.70687 -2.19456
      CHANNELS 3 Zrotation Xrotation Yrotation
      JOINT lShin
      {
        OFFSET 0 -36.8199 0.73152
        CHANNELS 3 Zrotation Xrotation Yrotation
        JOINT lFoot
        {
          OFFSET -0.73152 -45.1104 -5.12064
          CHANNELS 3 Zrotation Xrotation Yrotation
          End Site
          {
            OFFSET 1.1221 -3.69964 12.103
          }
        }
      }
    }
  }
}
MOTION
Frames: 4
Frame Time: 0.00833333
0.525286 83.5688 9.148 0.0 0.0 0.0 -2.45637 6.57444e-06 -0.0664199 -0.677101 0.0109128 -0.117187 -5.93836e-14 0.0 4.22418e-16 -1.78832e-13 3.18055e-15 1.01877e-15 -0.0 0.0 0.0 -0.0 0.0 0.0 -2.97227e-14 -3.65733e-16 9.93923e-17 -6.27046e-13 -7.90169e-15 2.98177e-15 -1.08524e-11 2.9772e-12 1.43125e-13 -1.24032e-10 -4.62671e-12 5.56597e-13 -2.92604e-10 -3.57658e-12 1.54893e-12 -5.05323e-10 -6.17346e-12 2.67564e-12 -2.926e-10 -3.57614e-12 1.53621e-12 7.73091 5.47488 0.417314 -2.92603e-10 -3.57713e-12 1.54893e-12 2.90554 0.965183 0.102902 -2.92603e-10 -3.57653e-12 1.54098e-12 10.2786 0.731801 0.0259123 -2.92606e-10 -3.57455e-12 1.54575e-12 2.22167 -0.733487 -0.20892 -2.96165e-14 -3.66509e-16 1.49089e-16 -6.31628e-13 -7.40473e-15 3.97569e-16 -1.08247e-11 -3.49801e-12 1.90833e-13 -1.24028e-10 1.88284e-12 5.02528e-13 -2.9254e-10 -3.50957e-12 1.54893e-12 -5.05195e-10 -6.06214e-12 2.68598e-12 -2.92543e-10 -3.50775e-12 1.56801e-12 -7.73091 5.47488 -0.417314 -2.92539e-10 -3.50984e-12 1.54575e-12 -2.90554 0.965183 -0.102902 -2.92548e-10 -3.50915e-12 1.5537e-12 -10.2786 0.731801 -0.0259123 -2.92533e-10 -3.50656e-12 1.55529e-12 -2.22167 -0.733487 0.20892 -2.03217e-16 0.0 -3.88251e-19 -1.38437 -1.93007 0.00585062 -0.00880805 -2.07862 -0.0724792 -0.480368 3.99895 0.135645 2.03217e-16 0.0 3.88251e-19 -2.35083 -8.19058 0.245981 -0.00624576 9.26112 -0.159991 0.527616 -1.08019 -0.037444 
1.8944631782363979 82.58460095684804 4.011370799249531 -146.73891932457786 85.86370523452157 -133.32291651031898 -3.6993192589118205 -19.782180131332083 -1.994288679174484 1.8450607523452156 -2.8602473864915576 -0.24614523958724202 -11.882728198874297 14.174022870544091 -11.47052894934334 27.195334146341462 5.881455733583491 -20.92645626641651 -0.0 0.0 0.0 -0.0 0.0 0.0 -5.5595551951219515e-14 2.0015924090056284e-13 6.50559739587242e-14 1.027294901500938 57.26825780487805 72.11961953095685 22.134846097560974 -61.49646797373359 -108.61409512195122 -0.03875507020637899 5.462903652908068 0.7702631712945591 2.160209095684803e-10 -1.2268665628517824e-09 -2.3258502645403378e-10 3.7089496885553473e-10 -2.122085354596623e-09 -4.019526891181988e-10 2.1602590919324577e-10 -1.2268665628517824e-09 -2.3259302570356473e-10 7.73091 5.47488 0.417314 2.1601990938086305e-10 -1.226856564727955e-09 -2.3258302701688556e-10 2.90554 0.965183 0.10290200000000001 2.160259095684803e-10 -1.226856564727955e-09 -2.3258202664165104e-10 10.2786 0.7318010000000001 0.0259123 2.1601590956848027e-10 -1.226856564727955e-09 -2.3257802645403375e-10 2.22167 -0.733487 -0.20892 -5.5676756378986865e-14 2.001652435272045e-13 6.485406617260787e-14 -5.062643834896812 61.189179455909944 -62.952661744840526 24.987592814258914 -44.35453613508442 -105.60419587242026 0.3070805887429644 15.252623808630393 -2.198254326454034 -8.548130341463415e-10 -2.156776600375234e-09 5.439433838649155e-10 -1.4729391744840525e-09 -3.738674478424015e-09 9.512668637898686e-10 -8.548240339587242e-10 -2.156776600375234e-09 5.439603836772983e-10 -7.73091 5.47488 -0.417314 -8.548130341463415e-10 -2.1567766022514068e-09 5.439513836772983e-10 -2.90554 0.965183 -0.10290200000000001 -8.548200328330207e-10 -2.156776600375234e-09 5.439483836772983e-10 -10.2786 0.7318010000000001 -0.0259123 -8.548100328330207e-10 -2.156766602251407e-09 5.439403838649156e-10 -2.22167 -0.733487 0.20892 -2.03217e-16 0.0 -3.88251e-19 -3.86465590619137 -11.547621200750468 12.270818780487804 0.016610726791744843 3.763427866791745 0.3315753842401501 -4.187116673545966 -4.287814273921201 -21.95192994371482 2.03217e-16 0.0 3.88251e-19 20.70703170731707 -8.070499891181987 0.19434294240150093 -0.011130941500938086 9.390470564727956 -0.2046633684803002 -0.11613573921200751 -1.303270707317073 0.033114688367729836 
2.1756014033771107 82.5630010131332 4.045461523452158 -144.41890731707318 85.88729988742965 -130.96789943714822 -3.12370052532833 -19.980201313320823 -2.042929268292683 1.6205043602251408 -2.4067555121951223 -0.2823729429643527 -11.450666003752344 12.729273208255162 -10.465218311444653 25.739680787992494 6.121367696060038 -19.162624427767355 -0.0 0.0 0.0 -0.0 0.0 0.0 -2.4937497936210134e-14 -7.262986191369605e-13 1.0239784240150094e-14 3.4147496360225147 58.14454303939962 65.86825876172608 22.932933658536584 -50.66147185741088 -106.50219024390243 -0.08444162341463415 8.30005982739212 1.1746926979362102 -5.023229639774859e-10 1.4597746041275798e-09 2.522064720450281e-10 -8.64831920075047e-10 2.5297818986866793e-09 4.3828295647279554e-10 -5.023199632270169e-10 1.4597646041275797e-09 2.521994712945591e-10 7.730910000000001 5.47488 0.4173140000000001 -5.023249639774859e-10 1.4597746041275798e-09 2.522084727954972e-10 2.9055400000000002 0.965183 0.102902 -5.02319963977486e-10 1.4597746041275798e-09 2.522074727954972e-10 10.2786 0.731801 0.025912300000000003 -5.023259643527205e-10 1.4597746041275798e-09 2.522104724202626e-10 2.22167 -0.733487 -0.20892 -2.5015391444652907e-14 -7.262936210131332e-13 9.877604075046905e-15 -8.611108262664164 61.69577909943715 -56.2412712195122 25.77042761726079 -46.6939302814259 -97.05608393996249 0.19203680150093808 12.172826454033771 -1.7391091894934334 1.10291697260788e-09 3.7207522851782365e-09 -1.2853130630393996e-09 1.896008799249531e-09 6.4334557973733584e-09 -2.2305800712945592e-09 1.1029069726078798e-09 3.7207522851782365e-09 -1.2853130589118199e-09 -7.730910000000001 5.47488 -0.4173140000000001 1.1029269699812383e-09 3.720762281425891e-09 -1.2853130619136962e-09 -2.9055400000000002 0.965183 -0.102902 1.1029169699812382e-09 3.7207522851782365e-09 -1.28532305891182e-09 -10.2786 0.731801 -0.025912300000000003 1.1029269703564728e-09 3.7207622851782364e-09 -1.2853230611632271e-09 -2.22167 -0.733487 0.20892 -2.0321700000000002e-16 0.0 -3.8825100000000003e-19 -3.7383377373358346 -10.635233245778611 11.606288968105066 0.017373434896810508 3.097248607879925 0.30565348442776735 -3.8084518236397753 -3.850257767354597 -20.66659808630394 2.0321700000000002e-16 0.0 3.8825100000000003e-19 19.350100187617265 -8.067711069418387 0.1970680176360225 -0.00978676068292683 9.358262378986867 -0.19240874221388368 -0.074615341575985 -1.2737914146341462 0.028332787767354595 
2.43755234521576 82.5411018011257 4.032602780487806 -144.6831592870544 85.8474074859287 -131.39313283302067 -2.744457311444653 -21.16167679174484 -2.085661080675422 1.3018218030018762 -2.1837847260787995 -0.294222207879925 -11.266933602251406 11.885585272045029 -10.244223245778612 25.559527298311444 7.707947180112571 -18.890722795497187 -0.0 0.0 0.0 -0.0 0.0 0.0 4.345195489681051e-16 7.0165622833020635e-12 2.0338643470919328e-13 2.6093133245778612 58.574546135084425 66.4040175609756 23.857395534709198 -49.57802928705441 -103.73232307692308 -0.12650543771106945 10.089553602251408 1.4329788030018764 -2.147121433395873e-09 9.85903071106942e-09 2.3757404390243907e-09 -3.6964481407129457e-09 1.7077230375234522e-08 4.122710114446529e-09 -2.147121433395873e-09 9.85902071106942e-09 2.3757204390243906e-09 7.73091 5.47488 0.4173140000000001 -2.147121433395873e-09 9.85902071106942e-09 2.3757304390243904e-09 2.90554 0.965183 0.10290200000000001 -2.147121433395873e-09 9.85903071106942e-09 2.3757404390243907e-09 10.278600000000003 0.7318010000000001 0.0259123 -2.1471314277673545e-09 9.85903071106942e-09 2.3757404390243907e-09 2.22167 -0.733487 -0.20892 4.0638837317073173e-16 7.0165622833020635e-12 2.032374048780488e-13 -9.194108440900562 61.8582981988743 -55.2378220075047 26.878198405253283 -44.33406442776735 -92.11061540337711 0.5758133414634147 21.04346052532833 -3.099549206378987 4.849430786116322e-09 1.0842331519699813e-08 -1.7956542157598501e-09 8.351381521575986e-09 1.8773832720450285e-08 -3.178736435272045e-09 4.849430786116322e-09 1.0842331519699813e-08 -1.79564421575985e-09 -7.73091 5.47488 -0.4173140000000001 4.849430786116322e-09 1.0842331519699813e-08 -1.7956542101313323e-09 -2.90554 0.965183 -0.10290200000000001 4.84942079174484e-09 1.0842331519699813e-08 -1.79564421575985e-09 -10.278600000000003 0.7318010000000001 -0.0259123 4.849430786116322e-09 1.0842331519699813e-08 -1.7956542157598501e-09 -2.22167 -0.733487 0.20892 -2.0321700000000002e-16 0.0 -3.8825100000000003e-19 -3.6929248180112575 -10.26113894934334 11.614501125703566 0.017968402288930582 2.9660659662288937 0.30563078780487807 -3.841645125703565 -3.9727028836772984 -20.671899943714823 2.0321700000000002e-16 0.0 3.8825100000000003e-19 19.348000393996248 -8.06818951031895 0.19704897861163229 -0.008675577564727954 9.348310337711071 -0.1827070958724203 -0.07366062791744842 -1.2614610581613508 0.02804221947467167 
